<svg xmlns="http://www.w3.org/2000/svg" viewBox="0 0 1200 750" width="1200" height="750" role="img"> <rect x="0" y="0" width="1200" height="750" rx="0" fill="#0B1220" opacity="1"/> <rect x="0" y="0" width="1200" height="40" rx="0" fill="#0E1728" opacity="1"/> <circle cx="26" cy="20" r="5.5" fill="#F87171" opacity="0.85"/> <circle cx="46" cy="20" r="5.5" fill="#FBBF24" opacity="0.85"/> <circle cx="66" cy="20" r="5.5" fill="#34D399" opacity="0.85"/> <rect x="96" y="12" width="340" height="16" rx="8" fill="#0B1220" opacity="1"/> <circle cx="112" cy="20" r="3.5" fill="#A78BFA" opacity="0.9"/> <rect x="124" y="16" width="150" height="8" rx="4" fill="#334155" opacity="0.7"/> <text x="1176" y="25" text-anchor="end" font-family="ui-monospace,monospace" font-size="11" fill="#64748B" opacity="0.8">Fluxo</text> <!-- sidebar --> <rect x="0" y="40" width="260" height="710" rx="0" fill="#0E1728" opacity="1"/> <rect x="260" y="40" width="1" height="710" rx="0" fill="#1E293B" opacity="1"/> <rect x="24" y="68" width="30" height="30" rx="8" fill="#A78BFA" opacity="0.9"/> <rect x="64" y="76" width="96" height="12" rx="4" fill="#CBD5E1" opacity="0.8"/> <rect x="24" y="140" width="14" height="14" rx="4" fill="#334155" opacity="0.7"/> <rect x="50" y="143" width="88" height="8" rx="3" fill="#64748B" opacity="0.8"/> <rect x="14" y="176" width="232" height="36" rx="8" fill="#A78BFA" opacity="0.12"/> <rect x="24" y="186" width="14" height="14" rx="4" fill="#A78BFA" opacity="1"/> <rect x="50" y="189" width="111" height="8" rx="3" fill="#CBD5E1" opacity="0.8"/> <rect x="24" y="232" width="14" height="14" rx="4" fill="#334155" opacity="0.7"/> <rect x="50" y="235" width="107" height="8" rx="3" fill="#64748B" opacity="0.8"/> <rect x="24" y="278" width="14" height="14" rx="4" fill="#334155" opacity="0.7"/> <rect x="50" y="281" width="114" height="8" rx="3" fill="#64748B" opacity="0.8"/> <rect x="24" y="324" width="14" height="14" rx="4" fill="#334155" opacity="0.7"/> <rect x="50" y="327" width="81" height="8" rx="3" fill="#64748B" opacity="0.8"/> <rect x="24" y="370" width="14" height="14" rx="4" fill="#334155" opacity="0.7"/> <rect x="50" y="373" width="121" height="8" rx="3" fill="#64748B" opacity="0.8"/> <rect x="14" y="660" width="232" height="56" rx="10" fill="#111C2E" opacity="1"/> <circle cx="42" cy="688" r="14" fill="#A78BFA" opacity="0.85"/> <rect x="66" y="678" width="78" height="7" rx="3" fill="#64748B" opacity="0.7"/><rect x="66" y="694" width="52" height="7" rx="3" fill="#64748B" opacity="0.7"/> <!-- header --> <rect x="300" y="70" width="210" height="20" rx="5" fill="#CBD5E1" opacity="0.9"/> <rect x="300" y="100" width="300" height="8" rx="3" fill="#64748B" opacity="0.6"/> <rect x="1050" y="68" width="120" height="30" rx="8" fill="#111C2E" opacity="1"/> <rect x="1064" y="79" width="60" height="8" rx="3" fill="#64748B" opacity="0.8"/> <rect x="300" y="130" width="265" height="92" rx="12" fill="#111C2E" opacity="1"/> <rect x="300" y="130" width="3" height="92" rx="2" fill="#A78BFA" opacity="0.8"/> <rect x="320" y="152" width="70" height="7" rx="3" fill="#64748B" opacity="0.7"/> <rect x="320" y="172" width="96" height="18" rx="4" fill="#CBD5E1" opacity="0.9"/> <rect x="320" y="200" width="46" height="6" rx="3" fill="#A78BFA" opacity="0.75"/> <rect x="590" y="130" width="265" height="92" rx="12" fill="#111C2E" opacity="1"/> <rect x="590" y="130" width="3" height="92" rx="2" fill="#A78BFA" opacity="0.8"/> <rect x="610" y="152" width="70" height="7" rx="3" fill="#64748B" opacity="0.7"/> <rect x="610" y="172" width="96" height="18" rx="4" fill="#CBD5E1" opacity="0.9"/> <rect x="610" y="200" width="46" height="6" rx="3" fill="#A78BFA" opacity="0.75"/> <rect x="880" y="130" width="265" height="92" rx="12" fill="#111C2E" opacity="1"/> <rect x="880" y="130" width="3" height="92" rx="2" fill="#A78BFA" opacity="0.8"/> <rect x="900" y="152" width="70" height="7" rx="3" fill="#64748B" opacity="0.7"/> <rect x="900" y="172" width="96" height="18" rx="4" fill="#CBD5E1" opacity="0.9"/> <rect x="900" y="200" width="46" height="6" rx="3" fill="#A78BFA" opacity="0.75"/> <!-- gráfico principal --> <rect x="300" y="250" width="555" height="300" rx="12" fill="#111C2E" opacity="1"/> <rect x="324" y="274" width="130" height="10" rx="4" fill="#CBD5E1" opacity="0.85"/> <rect x="324" y="292" width="80" height="7" rx="3" fill="#64748B" opacity="0.6"/> <defs> <linearGradient id="fill-a435" x1="0" y1="0" x2="0" y2="1"> <stop offset="0%" stop-color="#A78BFA" stop-opacity="0.28"/> <stop offset="100%" stop-color="#A78BFA" stop-opacity="0"/> </linearGradient> </defs> <rect x="324" y="320" width="507" height="1" rx="0" fill="#1E293B" opacity="0.55"/><rect x="324" y="370" width="507" height="1" rx="0" fill="#1E293B" opacity="0.55"/><rect x="324" y="420" width="507" height="1" rx="0" fill="#1E293B" opacity="0.55"/><rect x="324" y="470" width="507" height="1" rx="0" fill="#1E293B" opacity="0.55"/> <path d="M 324 452.0758895878857 C 343.5 452.0758895878857, 343.5 446.0439234335221, 363 446.0439234335221 C 382.5 446.0439234335221, 382.5 434.34941870841953, 402 434.34941870841953 C 421.5 434.34941870841953, 421.5 445.64264920424375, 441 445.64264920424375 C 460.5 445.64264920424375, 460.5 396.89558383560313, 480 396.89558383560313 C 499.5 396.89558383560313, 499.5 426.6979890030356, 519 426.6979890030356 C 538.5 426.6979890030356, 538.5 385.9140091609869, 558 385.9140091609869 C 577.5 385.9140091609869, 577.5 390.64947856727065, 597 390.64947856727065 C 616.5 390.64947856727065, 616.5 392.6273872913606, 636 392.6273872913606 C 655.5 392.6273872913606, 655.5 357.9118361720037, 675 357.9118361720037 C 694.5 357.9118361720037, 694.5 377.96459235264456, 714 377.96459235264456 C 733.5 377.96459235264456, 733.5 366.70465165557846, 753 366.70465165557846 C 772.5 366.70465165557846, 772.5 360.68648109683414, 792 360.68648109683414 C 811.5 360.68648109683414, 811.5 344.10576926313945, 831 344.10576926313945 L 831 520 L 324 520 Z" fill="url(#fill-a435)"/> <path d="M 324 452.0758895878857 C 343.5 452.0758895878857, 343.5 446.0439234335221, 363 446.0439234335221 C 382.5 446.0439234335221, 382.5 434.34941870841953, 402 434.34941870841953 C 421.5 434.34941870841953, 421.5 445.64264920424375, 441 445.64264920424375 C 460.5 445.64264920424375, 460.5 396.89558383560313, 480 396.89558383560313 C 499.5 396.89558383560313, 499.5 426.6979890030356, 519 426.6979890030356 C 538.5 426.6979890030356, 538.5 385.9140091609869, 558 385.9140091609869 C 577.5 385.9140091609869, 577.5 390.64947856727065, 597 390.64947856727065 C 616.5 390.64947856727065, 616.5 392.6273872913606, 636 392.6273872913606 C 655.5 392.6273872913606, 655.5 357.9118361720037, 675 357.9118361720037 C 694.5 357.9118361720037, 694.5 377.96459235264456, 714 377.96459235264456 C 733.5 377.96459235264456, 733.5 366.70465165557846, 753 366.70465165557846 C 772.5 366.70465165557846, 772.5 360.68648109683414, 792 360.68648109683414 C 811.5 360.68648109683414, 811.5 344.10576926313945, 831 344.10576926313945" fill="none" stroke="#A78BFA" stroke-width="2.5" stroke-linecap="round"/> <circle cx="831" cy="344.10576926313945" r="4.5" fill="#A78BFA" opacity="1"/> <circle cx="831" cy="344.10576926313945" r="9" fill="#A78BFA" opacity="0.22"/> <!-- coluna lateral --> <rect x="880" y="250" width="290" height="300" rx="12" fill="#111C2E" opacity="1"/> <rect x="904" y="274" width="110" height="10" rx="4" fill="#CBD5E1" opacity="0.85"/> <circle cx="1025" cy="370" r="52" fill="none" stroke="#1E293B" stroke-width="12"/> <circle cx="1025" cy="370" r="52" fill="none" stroke="#A78BFA" stroke-width="12" stroke-linecap="round" stroke-dasharray="273.77451532095495 326.7256359733385" transform="rotate(-90 1025 370)"/> <text x="1025" y="377" text-anchor="middle" font-family="ui-monospace,monospace" font-size="13" fill="#CBD5E1" font-weight="600">84%</text> <circle cx="912" cy="460" r="4" fill="#A78BFA" opacity="0.9"/> <rect x="926" y="456" width="110" height="7" rx="3" fill="#64748B" opacity="0.7"/> <rect x="1120" y="456" width="28" height="7" rx="3" fill="#CBD5E1" opacity="0.6"/> <circle cx="912" cy="488" r="4" fill="#334155" opacity="0.9"/> <rect x="926" y="484" width="148" height="7" rx="3" fill="#64748B" opacity="0.7"/> <rect x="1120" y="484" width="28" height="7" rx="3" fill="#CBD5E1" opacity="0.6"/> <circle cx="912" cy="516" r="4" fill="#334155" opacity="0.9"/> <rect x="926" y="512" width="134" height="7" rx="3" fill="#64748B" opacity="0.7"/> <rect x="1120" y="512" width="28" height="7" rx="3" fill="#CBD5E1" opacity="0.6"/> <!-- rodapé --> <rect x="300" y="580" width="870" height="140" rx="12" fill="#111C2E" opacity="1"/> <rect x="324" y="604" width="140" height="10" rx="4" fill="#CBD5E1" opacity="0.85"/> <rect x="324" y="659.2722545344551" width="82.22222222222223" height="38.72774546554492" rx="3" fill="#334155" opacity="0.65"/><rect x="416.22222222222223" y="635.9799589730287" width="82.22222222222223" height="62.0200410269713" rx="3" fill="#334155" opacity="0.65"/><rect x="508.44444444444446" y="651.9196027039363" width="82.22222222222223" height="46.080397296063694" rx="3" fill="#334155" opacity="0.65"/><rect x="600.6666666666667" y="666.5946142625983" width="82.22222222222223" height="31.405385737401755" rx="3" fill="#334155" opacity="0.65"/><rect x="692.8888888888889" y="633.8036086818678" width="82.22222222222223" height="64.19639131813226" rx="3" fill="#334155" opacity="0.65"/><rect x="785.1111111111111" y="650.652051476215" width="82.22222222222223" height="47.34794852378497" rx="3" fill="#334155" opacity="0.65"/><rect x="877.3333333333334" y="657.4877827374935" width="82.22222222222223" height="40.51221726250654" rx="3" fill="#334155" opacity="0.65"/><rect x="969.5555555555557" y="674.6628130327125" width="82.22222222222223" height="23.337186967287487" rx="3" fill="#334155" opacity="0.65"/><rect x="1061.7777777777778" y="659.1583062879644" width="82.22222222222223" height="38.841693712035585" rx="3" fill="#A78BFA" opacity="0.95"/> </svg>